
<svg xmlns="http://www.w3.org/2000/svg" version="1.1" xmlns:xlink="http://www.w3.org/1999/xlink" preserveAspectRatio="none" x="0px" y="0px" width="500px" height="259px" viewBox="0 0 500 259">
<defs>
<g id="Layer1_0_MEMBER_0_MEMBER_0_FILL">
<path fill="#ED3035" stroke="none" d="
M 115.7 197.85
L 97.1 197.85 97.1 316.1 130.25 316.1
Q 144.6 316.1 152.7 312.05 160.8 308 166 299.8 171.15 291.45 171.15 281.6 171.15 271.3 166.15 263.65 161.1 256 150.4 251 156.75 246.2 159.7 240.65 162.55 235.2 162.55 228.4 162.55 218.05 156.25 210.4 149.9 202.7 139.35 199.95 131.85 197.85 115.7 197.85
M 125.4 219.3
Q 133.1 219.3 136.95 222.55 140.75 225.85 140.75 231.35 140.75 237.3 136.75 240.75 132.8 244.25 124.5 244.25
L 119.6 244.25 119.6 219.3 125.4 219.3
M 119.6 294.65
L 119.6 264.35 124.3 264.35
Q 137.65 264.35 143.3 268.75 149 273.2 149 280.8 149 287.6 144.15 291.1 139.25 294.65 125.25 294.65
L 119.6 294.65 Z"/>
</g>

<g id="Layer1_0_MEMBER_0_MEMBER_1_FILL">
<path fill="#ED3035" stroke="none" d="
M 246.2 228.65
L 246.2 238.3
Q 240.45 232.4 233.45 229.35 226.5 226.4 218.7 226.4 201.6 226.4 189.6 239.35 177.65 252.3 177.65 272.55 177.65 292.1 190 305.2 202.4 318.35 219.3 318.35 226.85 318.35 233.35 315.65 239.8 312.95 246.2 306.85
L 246.2 316.1 268.15 316.1 268.15 228.65 246.2 228.65
M 223.15 246.65
Q 233.6 246.65 240.35 253.7 247.2 260.85 247.2 272.2 247.2 283.8 240.35 291.05 233.6 298.25 223.25 298.25 213.3 298.25 206.35 290.95 199.5 283.55 199.5 272.3 199.5 261.05 206.25 253.85 213 246.65 223.15 246.65 Z"/>
</g>

<g id="Layer1_0_MEMBER_0_MEMBER_2_FILL">
<path fill="#ED3035" stroke="none" d="
M 359.7 228.65
L 332.1 228.65 299.8 264.7 299.8 194.85 277.85 194.85 277.85 316.1 299.8 316.1 299.8 275.8 336.95 316.1 364.2 316.1 322 270.55 359.7 228.65 Z"/>
</g>

<g id="Layer1_0_MEMBER_0_MEMBER_3_FILL">
<path fill="#ED3035" stroke="none" d="
M 442.1 278.7
L 442.2 274.55
Q 442.2 252.85 429.25 239.6 416.3 226.4 395.65 226.4 376.2 226.4 363.3 239.6 350.4 252.8 350.4 272.85 350.4 292.4 363.3 305.35 376.3 318.35 396.85 318.35 410.15 318.35 419.75 313.65 429.35 308.95 436.3 299.15
L 417.8 290.45
Q 409.05 299.05 396.7 299.05 386.45 299.05 379.75 293.55 373.1 288.05 371.6 278.7
L 442.1 278.7
M 411.6 249.55
Q 418 254.15 420.15 261.45
L 372.55 261.45
Q 376.3 253.3 380.6 250.1 387.55 244.95 396.7 244.95 405.1 244.95 411.6 249.55 Z"/>
</g>

<g id="Layer1_0_MEMBER_0_MEMBER_4_FILL">
<path fill="#ED3035" stroke="none" d="
M 477.35 229.75
Q 472.3 233.1 469.2 239.65
L 469.2 228.65 450.4 228.65 450.4 316.1 472.2 316.1 472.1 276.45
Q 472.1 258.1 475.6 251.85 479.15 245.6 484.15 245.6 486.7 245.6 490.5 247.55
L 497.35 228.65
Q 492.7 226.4 488.4 226.4 482.35 226.4 477.35 229.75 Z"/>
</g>

<g id="Layer1_0_MEMBER_0_MEMBER_5_FILL">
<path fill="#AD132A" stroke="none" d="
M 119.05 323.85
L 97.1 323.85 76.65 442.1 98.6 442.1 111.55 367.45 136.45 442.1 156.3 442.1 181.4 367.45 194.1 442.1 215.85 442.1 196.05 323.85 174.1 323.85 146.45 406.35 119.05 323.85 Z"/>
</g>

<g id="Layer1_0_MEMBER_0_MEMBER_6_FILL">
<path fill="#AD132A" stroke="none" d="
M 240.1 358.5
Q 228.75 364.65 222.35 375.3 216 386.1 216 398.7 216 417 229.1 430.7 242.15 444.35 265.2 444.35 290.85 444.35 304.95 426.05
L 287.65 414.25
Q 279.45 424.25 264.7 424.25 252.8 424.25 245.45 417.2 238.15 410.2 238.15 399 238.15 387.45 245.75 380.15 253.25 372.85 265.65 372.85 272.55 372.85 277.45 374.9 282.5 377 287.65 382.4
L 305.9 372.35
Q 299.35 362.8 288.95 357.6 278.5 352.4 265.55 352.4 251.55 352.4 240.1 358.5 Z"/>
</g>

<g id="Layer1_0_MEMBER_0_MEMBER_7_FILL">
<path fill="#AD132A" stroke="none" d="
M 395.75 323.85
L 368.7 323.85 336.6 364.65 336.6 323.85 313.85 323.85 313.85 442.1 336.6 442.1 336.6 389.6 373.05 442.1 399.75 442.1 354.45 376.65 395.75 323.85 Z"/>
</g>

<g id="Layer1_0_MEMBER_0_MEMBER_8_FILL">
<path fill="#AD132A" stroke="none" d="
M 468.2 365.65
Q 455.25 352.4 434.6 352.4 415.15 352.4 402.25 365.65 389.3 378.85 389.3 398.85 389.3 418.4 402.25 431.4 415.2 444.35 435.8 444.35 449.1 444.35 458.7 439.65 468.3 435.05 475.25 425.15
L 456.75 416.5
Q 447.85 425.1 435.65 425.1 425.4 425.1 418.7 419.55 412.05 414.05 410.55 404.75
L 481.05 404.75 481.15 400.55
Q 481.15 378.9 468.2 365.65
M 411.5 387.45
Q 415.3 379.25 419.55 376.1 426.55 371 435.65 371 444.15 371 450.5 375.55 456.9 380.1 459.1 387.45
L 411.5 387.45 Z"/>
</g>

<g id="Layer1_0_MEMBER_0_MEMBER_9_FILL">
<path fill="#AD132A" stroke="none" d="
M 511.6 389.3
Q 513.4 381.45 518.2 376.95 523.05 372.5 529.65 372.5 534.75 372.5 538.25 375.2 541.7 377.85 543.15 383 544.55 388.1 544.55 403.8
L 544.55 442.1 566.25 442.1 566.25 384.3
Q 566.25 369.25 558.65 361.5 549.55 352.4 536.55 352.4 530.35 352.4 524.15 354.85 518.25 357.25 510.6 363.6
L 510.6 354.65 488.7 354.65 488.7 442.1 510.6 442.1 510.6 407.05
Q 510.6 393.45 511.6 389.3 Z"/>
</g>

<g id="Layer1_0_MEMBER_0_MEMBER_10_FILL">
<path fill="#AD132A" stroke="none" d="
M 578.4 354.65
L 578.4 373.25 611.85 373.25 572.4 442.1 643.15 442.1 643.15 423.55 606.1 423.55 645.4 354.65 578.4 354.65 Z"/>
</g>

<g id="Layer1_0_MEMBER_0_MEMBER_11_FILL">
<path fill="#AD132A" stroke="none" d="
M 726.15 352.4
Q 706.7 352.4 693.8 365.65 680.9 378.85 680.9 398.85 680.9 418.45 693.85 431.4 706.75 444.35 727.35 444.35 740.7 444.35 750.25 439.65 759.8 435.05 766.85 425.15
L 748.35 416.5
Q 739.45 425.1 727.2 425.1 716.9 425.1 710.3 419.55 703.7 414.15 702.1 404.75
L 772.6 404.75 772.7 400.55
Q 772.7 378.85 759.75 365.65 746.8 352.4 726.15 352.4
M 703.1 387.45
Q 706.8 379.35 711.15 376.1 718.05 371 727.25 371 735.75 371 742.1 375.55 748.45 380.1 750.65 387.45
L 703.1 387.45 Z"/>
</g>

<g id="Layer1_0_MEMBER_0_MEMBER_12_FILL">
<path fill="#AD132A" stroke="none" d="
M 673.6 354.65
L 651.65 354.65 651.65 442.1 673.6 442.1 673.6 354.65 Z"/>
</g>

<g id="Layer1_0_MEMBER_0_MEMBER_13_FILL">
<path fill="#AD132A" stroke="none" d="
M 673.55 330.8
L 651.65 330.8 651.65 347.4 673.55 347.4 673.55 330.8 Z"/>
</g>

<g id="Layer1_0_MEMBER_0_MEMBER_14_FILL">
<path fill="#AD132A" stroke="none" d="
M 778 425.45
L 778 442.05 798.65 442.05 798.65 425.45 778 425.45 Z"/>
</g>

<g id="Layer1_0_MEMBER_1_FILL">
<path fill="#C2C3C4" stroke="none" d="
M 119.2 449.95
L 96.7 449.95 96.7 568.1 152 568.1 152 546.65 119.2 546.65 119.2 449.95 Z"/>
</g>

<g id="Layer1_0_MEMBER_2_FILL">
<path fill="#C2C3C4" stroke="none" d="
M 240.95 478.45
Q 234.75 478.45 228.55 480.9 222.4 483.4 215.05 489.65
L 215.05 480.7 193.1 480.7 193.1 568.1 215.05 568.1 215.05 533.05
Q 215.05 519.3 216 515.3 217.9 507.45 222.6 503 227.35 498.55 234.05 498.55 239.2 498.55 242.65 501.25 246.1 503.85 247.55 509.05 248.95 514.35 248.95 529.85
L 248.95 568.1 270.65 568.1 270.65 510.35
Q 270.65 495.2 263 487.55 253.9 478.45 240.95 478.45 Z"/>
</g>

<g id="Layer1_0_MEMBER_3_FILL">
<path fill="#C2C3C4" stroke="none" d="
M 302.9 446.95
L 281 446.95 281 568.1 302.9 568.1 302.9 527.8 340.05 568.1 367.25 568.1 325.1 522.6 362.75 480.7 335.2 480.7 302.9 516.75 302.9 446.95 Z"/>
</g>

<g id="Layer1_0_MEMBER_4_MEMBER_0_FILL">
<path fill="#C2C3C4" stroke="none" d="
M 183.1 568.1
L 183.1 480.65 161.15 480.65 161.15 568.1 183.1 568.1 Z"/>
</g>

<g id="Layer1_0_MEMBER_4_MEMBER_1_FILL">
<path fill="#C2C3C4" stroke="none" d="
M 183.1 473.35
L 183.1 456.8 161.15 456.8 161.15 473.35 183.1 473.35 Z"/>
</g>
</defs>

<g transform="matrix( 0.6925048828125, 0, 0, 0.69268798828125, -53.1,-134.95) ">
<use xlink:href="#Layer1_0_MEMBER_0_MEMBER_0_FILL"/>
</g>

<g transform="matrix( 0.6925048828125, 0, 0, 0.69268798828125, -53.1,-134.95) ">
<use xlink:href="#Layer1_0_MEMBER_0_MEMBER_1_FILL"/>
</g>

<g transform="matrix( 0.6925048828125, 0, 0, 0.69268798828125, -53.1,-134.95) ">
<use xlink:href="#Layer1_0_MEMBER_0_MEMBER_2_FILL"/>
</g>

<g transform="matrix( 0.6925048828125, 0, 0, 0.69268798828125, -53.1,-134.95) ">
<use xlink:href="#Layer1_0_MEMBER_0_MEMBER_3_FILL"/>
</g>

<g transform="matrix( 0.6925048828125, 0, 0, 0.69268798828125, -53.1,-134.95) ">
<use xlink:href="#Layer1_0_MEMBER_0_MEMBER_4_FILL"/>
</g>

<g transform="matrix( 0.6925048828125, 0, 0, 0.69268798828125, -53.1,-134.95) ">
<use xlink:href="#Layer1_0_MEMBER_0_MEMBER_5_FILL"/>
</g>

<g transform="matrix( 0.6925048828125, 0, 0, 0.69268798828125, -53.1,-134.95) ">
<use xlink:href="#Layer1_0_MEMBER_0_MEMBER_6_FILL"/>
</g>

<g transform="matrix( 0.6925048828125, 0, 0, 0.69268798828125, -53.1,-134.95) ">
<use xlink:href="#Layer1_0_MEMBER_0_MEMBER_7_FILL"/>
</g>

<g transform="matrix( 0.6925048828125, 0, 0, 0.69268798828125, -53.1,-134.95) ">
<use xlink:href="#Layer1_0_MEMBER_0_MEMBER_8_FILL"/>
</g>

<g transform="matrix( 0.6925048828125, 0, 0, 0.69268798828125, -53.1,-134.95) ">
<use xlink:href="#Layer1_0_MEMBER_0_MEMBER_9_FILL"/>
</g>

<g transform="matrix( 0.6925048828125, 0, 0, 0.69268798828125, -53.1,-134.95) ">
<use xlink:href="#Layer1_0_MEMBER_0_MEMBER_10_FILL"/>
</g>

<g transform="matrix( 0.6925048828125, 0, 0, 0.69268798828125, -53.1,-134.95) ">
<use xlink:href="#Layer1_0_MEMBER_0_MEMBER_11_FILL"/>
</g>

<g transform="matrix( 0.6925048828125, 0, 0, 0.69268798828125, -53.1,-134.95) ">
<use xlink:href="#Layer1_0_MEMBER_0_MEMBER_12_FILL"/>
</g>

<g transform="matrix( 0.6925048828125, 0, 0, 0.69268798828125, -53.1,-134.95) ">
<use xlink:href="#Layer1_0_MEMBER_0_MEMBER_13_FILL"/>
</g>

<g transform="matrix( 0.6925048828125, 0, 0, 0.69268798828125, -53.1,-134.95) ">
<use xlink:href="#Layer1_0_MEMBER_0_MEMBER_14_FILL"/>
</g>

<g transform="matrix( 0.6925048828125, 0, 0, 0.69268798828125, -53.1,-134.95) ">
<use xlink:href="#Layer1_0_MEMBER_1_FILL"/>
</g>

<g transform="matrix( 0.6925048828125, 0, 0, 0.69268798828125, -53.1,-134.95) ">
<use xlink:href="#Layer1_0_MEMBER_2_FILL"/>
</g>

<g transform="matrix( 0.6925048828125, 0, 0, 0.69268798828125, -53.1,-134.95) ">
<use xlink:href="#Layer1_0_MEMBER_3_FILL"/>
</g>

<g transform="matrix( 0.6925048828125, 0, 0, 0.69268798828125, -53.1,-134.95) ">
<use xlink:href="#Layer1_0_MEMBER_4_MEMBER_0_FILL"/>
</g>

<g transform="matrix( 0.6925048828125, 0, 0, 0.69268798828125, -53.1,-134.95) ">
<use xlink:href="#Layer1_0_MEMBER_4_MEMBER_1_FILL"/>
</g>
</svg>
